HIERARCHY
ROOT mixamorig:Hips
{
	OFFSET 0.000000 93.996948 0.000004
	CHANNELS 6 Xposition Yposition Zposition Xrotation Yrotation Zrotation
	JOINT mixamorig:Spine
	{
		OFFSET 0.000000 12.994652 -0.000000
		CHANNELS 6 Xposition Yposition Zposition Xrotation Yrotation Zrotation
		JOINT mixamorig:Spine1
		{
			OFFSET 0.000000 12.666664 0.000001
			CHANNELS 6 Xposition Yposition Zposition Xrotation Yrotation Zrotation
			JOINT mixamorig:Spine2
			{
				OFFSET -0.000000 12.666656 0.000001
				CHANNELS 6 Xposition Yposition Zposition Xrotation Yrotation Zrotation
				JOINT mixamorig:LeftShoulder
				{
					OFFSET 6.999992 10.364258 1.903785
					CHANNELS 6 Xposition Yposition Zposition Xrotation Yrotation Zrotation
					JOINT mixamorig:LeftArm
					{
						OFFSET 13.607773 0.000000 0.000001
						CHANNELS 3 Xrotation Yrotation Zrotation
						JOINT mixamorig:LeftForeArm
						{
							OFFSET 27.102146 -0.000031 0.000078
							CHANNELS 6 Xposition Yposition Zposition Xrotation Yrotation Zrotation
							JOINT mixamorig:LeftHand
							{
								OFFSET 28.226727 -0.000046 0.000120
								CHANNELS 6 Xposition Yposition Zposition Xrotation Yrotation Zrotation
								JOINT mixamorig:LeftHandIndex1
								{
									OFFSET 8.050400 -0.094543 2.543380
									CHANNELS 6 Xposition Yposition Zposition Xrotation Yrotation Zrotation
									JOINT mixamorig:LeftHandIndex2
									{
										OFFSET 4.499985 0.000000 0.000008
										CHANNELS 3 Xrotation Yrotation Zrotation
										JOINT mixamorig:LeftHandIndex3
										{
											OFFSET 2.768486 -0.000015 -0.000012
											CHANNELS 6 Xposition Yposition Zposition Xrotation Yrotation Zrotation
											End Site
											{
												OFFSET 2.768494 0.000061 -0.000035
											}
										}
									}
								}
								JOINT mixamorig:LeftHandMiddle1
								{
									OFFSET 8.205635 -0.094559 0.544589
									CHANNELS 6 Xposition Yposition Zposition Xrotation Yrotation Zrotation
									JOINT mixamorig:LeftHandMiddle2
									{
										OFFSET 4.699982 0.000031 0.000007
										CHANNELS 3 Xrotation Yrotation Zrotation
										JOINT mixamorig:LeftHandMiddle3
										{
											OFFSET 3.099998 0.000000 -0.000003
											CHANNELS 6 Xposition Yposition Zposition Xrotation Yrotation Zrotation
											End Site
											{
												OFFSET 3.099991 0.000015 0.000005
											}
										}
									}
								}
								JOINT mixamorig:LeftHandPinky1
								{
									OFFSET 7.021164 -0.094574 -3.111078
									CHANNELS 6 Xposition Yposition Zposition Xrotation Yrotation Zrotation
									JOINT mixamorig:LeftHandPinky2
									{
										OFFSET 3.499992 -0.000015 -0.000003
										CHANNELS 6 Xposition Yposition Zposition Xrotation Yrotation Zrotation
										JOINT mixamorig:LeftHandPinky3
										{
											OFFSET 2.199982 0.000015 0.000009
											CHANNELS 3 Xrotation Yrotation Zrotation
											End Site
											{
												OFFSET 2.199989 0.000000 0.000013
											}
										}
									}
								}
								JOINT mixamorig:LeftHandRing1
								{
									OFFSET 7.772285 -0.094604 -1.421571
									CHANNELS 6 Xposition Yposition Zposition Xrotation Yrotation Zrotation
									JOINT mixamorig:LeftHandRing2
									{
										OFFSET 4.300003 0.000000 0.000006
										CHANNELS 3 Xrotation Yrotation Zrotation
										JOINT mixamorig:LeftHandRing3
										{
											OFFSET 2.773186 -0.000015 0.000001
											CHANNELS 6 Xposition Yposition Zposition Xrotation Yrotation Zrotation
											End Site
											{
												OFFSET 2.773193 0.000046 0.000004
											}
										}
									}
								}
								JOINT mixamorig:LeftHandThumb1
								{
									OFFSET 2.151253 -0.094543 2.784745
									CHANNELS 6 Xposition Yposition Zposition Xrotation Yrotation Zrotation
									JOINT mixamorig:LeftHandThumb2
									{
										OFFSET 3.454651 -0.000015 1.994560
										CHANNELS 6 Xposition Yposition Zposition Xrotation Yrotation Zrotation
										JOINT mixamorig:LeftHandThumb3
										{
											OFFSET 3.027802 -0.000046 0.000018
											CHANNELS 3 Xrotation Yrotation Zrotation
											End Site
											{
												OFFSET 3.027802 -0.000046 0.000012
											}
										}
									}
								}
							}
						}
					}
				}
				JOINT mixamorig:Neck
				{
					OFFSET -0.000013 18.093918 -0.000010
					CHANNELS 6 Xposition Yposition Zposition Xrotation Yrotation Zrotation
					JOINT mixamorig:Head
					{
						OFFSET 0.000000 11.149841 0.000000
						CHANNELS 3 Xrotation Yrotation Zrotation
						End Site
						{
							OFFSET 0.000000 11.149841 0.000000
						}
					}
				}
				JOINT mixamorig:RightShoulder
				{
					OFFSET -7.000004 10.364258 1.903772
					CHANNELS 6 Xposition Yposition Zposition Xrotation Yrotation Zrotation
					JOINT mixamorig:RightArm
					{
						OFFSET -13.607773 -0.000015 0.000001
						CHANNELS 3 Xrotation Yrotation Zrotation
						JOINT mixamorig:RightForeArm
						{
							OFFSET -27.102154 -0.000046 -0.000013
							CHANNELS 6 Xposition Yposition Zposition Xrotation Yrotation Zrotation
							JOINT mixamorig:RightHand
							{
								OFFSET -28.299980 -0.000061 -0.000095
								CHANNELS 6 Xposition Yposition Zposition Xrotation Yrotation Zrotation
								JOINT mixamorig:RightHandIndex1
								{
									OFFSET -7.977158 -0.094589 2.543477
									CHANNELS 6 Xposition Yposition Zposition Xrotation Yrotation Zrotation
									JOINT mixamorig:RightHandIndex2
									{
										OFFSET -4.499977 0.000015 -0.000009
										CHANNELS 6 Xposition Yposition Zposition Xrotation Yrotation Zrotation
										JOINT mixamorig:RightHandIndex3
										{
											OFFSET -2.768494 -0.000015 -0.000003
											CHANNELS 6 Xposition Yposition Zposition Xrotation Yrotation Zrotation
											End Site
											{
												OFFSET -2.768494 0.000031 0.000018
											}
										}
									}
								}
								JOINT mixamorig:RightHandMiddle1
								{
									OFFSET -8.132370 -0.094589 0.544699
									CHANNELS 6 Xposition Yposition Zposition Xrotation Yrotation Zrotation
									JOINT mixamorig:RightHandMiddle2
									{
										OFFSET -4.699997 0.000015 -0.000005
										CHANNELS 6 Xposition Yposition Zposition Xrotation Yrotation Zrotation
										JOINT mixamorig:RightHandMiddle3
										{
											OFFSET -3.099991 -0.000015 -0.000005
											CHANNELS 6 Xposition Yposition Zposition Xrotation Yrotation Zrotation
											End Site
											{
												OFFSET -3.099991 0.000000 0.000004
											}
										}
									}
								}
								JOINT mixamorig:RightHandPinky1
								{
									OFFSET -6.947868 -0.094559 -3.110968
									CHANNELS 6 Xposition Yposition Zposition Xrotation Yrotation Zrotation
									JOINT mixamorig:RightHandPinky2
									{
										OFFSET -3.499992 -0.000031 -0.000005
										CHANNELS 6 Xposition Yposition Zposition Xrotation Yrotation Zrotation
										JOINT mixamorig:RightHandPinky3
										{
											OFFSET -2.199989 0.000015 -0.000008
											CHANNELS 6 Xposition Yposition Zposition Xrotation Yrotation Zrotation
											End Site
											{
												OFFSET -2.199997 0.000046 0.000018
											}
										}
									}
								}
								JOINT mixamorig:RightHandRing1
								{
									OFFSET -7.699020 -0.094574 -1.421472
									CHANNELS 6 Xposition Yposition Zposition Xrotation Yrotation Zrotation
									JOINT mixamorig:RightHandRing2
									{
										OFFSET -4.300011 0.000000 -0.000002
										CHANNELS 6 Xposition Yposition Zposition Xrotation Yrotation Zrotation
										JOINT mixamorig:RightHandRing3
										{
											OFFSET -2.773163 -0.000015 -0.000007
											CHANNELS 6 Xposition Yposition Zposition Xrotation Yrotation Zrotation
											End Site
											{
												OFFSET -2.773163 0.000031 0.000001
											}
										}
									}
								}
								JOINT mixamorig:RightHandThumb1
								{
									OFFSET -2.077988 -0.094543 2.784874
									CHANNELS 6 Xposition Yposition Zposition Xrotation Yrotation Zrotation
									JOINT mixamorig:RightHandThumb2
									{
										OFFSET -3.454681 -0.000015 1.994533
										CHANNELS 3 Xrotation Yrotation Zrotation
										JOINT mixamorig:RightHandThumb3
										{
											OFFSET -3.027779 -0.000015 0.000008
											CHANNELS 3 Xrotation Yrotation Zrotation
											End Site
											{
												OFFSET -3.027786 0.000015 0.000006
											}
										}
									}
								}
							}
						}
					}
				}
			}
		}
	}
	JOINT mixamorig:LeftUpLeg
	{
		OFFSET 8.099949 0.000000 0.000000
		CHANNELS 6 Xposition Yposition Zposition Xrotation Yrotation Zrotation
		JOINT mixamorig:LeftLeg
		{
			OFFSET -0.000013 -43.199978 0.000038
			CHANNELS 6 Xposition Yposition Zposition Xrotation Yrotation Zrotation
			JOINT mixamorig:LeftFoot
			{
				OFFSET 0.062409 -43.299969 0.000052
				CHANNELS 3 Xrotation Yrotation Zrotation
				JOINT mixamorig:LeftToeBase
				{
					OFFSET -0.000006 -6.239403 13.169413
					CHANNELS 6 Xposition Yposition Zposition Xrotation Yrotation Zrotation
					End Site
					{
						OFFSET 0.000003 0.000088 14.572700
					}
				}
			}
		}
	}
	JOINT mixamorig:RightUpLeg
	{
		OFFSET -8.099949 0.000000 -0.000000
		CHANNELS 6 Xposition Yposition Zposition Xrotation Yrotation Zrotation
		JOINT mixamorig:RightLeg
		{
			OFFSET 0.000005 -43.200005 0.000037
			CHANNELS 6 Xposition Yposition Zposition Xrotation Yrotation Zrotation
			JOINT mixamorig:RightFoot
			{
				OFFSET -0.062555 -43.299992 0.000030
				CHANNELS 3 Xrotation Yrotation Zrotation
				JOINT mixamorig:RightToeBase
				{
					OFFSET -0.000008 -6.239427 13.169404
					CHANNELS 3 Xrotation Yrotation Zrotation
					End Site
					{
						OFFSET -0.000019 0.000005 14.572704
					}
				}
			}
		}
	}
}
MOTION
Frames: 4
Frame Time: 0.041667
-25.757757 87.896332 78.788086 -0.937529 -1.307332 0.038656 -0.000002 12.546089 0.000002 -0.377875 0.306888 -0.129261 -0.000002 12.308357 -0.000002 -0.377828 0.306894 -0.129258 -0.000002 11.703339 0.000016 -0.378954 0.307811 -0.129641 6.667784 9.777263 -0.000004 0.370893 18.797471 5.367150 5.514445 -4.860345 -76.047613 23.150337 0.000009 0.000087 2.200412 -31.121279 -16.487286 25.491989 0.000011 -0.000011 -18.353058 -9.498732 -7.019801 7.221758 -0.092100 2.290836 -2.275900 3.976226 9.807291 0.000007 -0.000006 -7.505292 2.520576 0.000060 -0.000005 0.000011 -0.000006 -5.003924 7.277738 -0.092124 0.487472 -1.868666 11.640846 5.605402 -0.000012 -0.000022 -7.927260 2.774218 0.000032 -0.000014 0.000063 -0.000030 -5.285286 6.277321 -0.092153 -2.805730 -6.782465 19.911475 -3.485440 3.178916 0.000041 -0.000005 -0.000303 -0.000148 -6.307032 0.000071 0.000664 -4.204928 6.982751 -0.092159 -1.288442 6.268564 14.142087 1.274306 0.000023 -0.000009 -11.700281 2.533678 0.000013 0.000000 0.000037 0.000164 -7.801704 1.859572 -0.083723 2.492225 52.339098 -29.799661 -8.199655 3.069009 -0.000019 1.771886 -8.030381 6.492937 6.689906 0.855253 9.801997 -9.948911 -0.000016 17.137604 -0.000016 -2.036447 0.400582 0.191636 -2.036447 0.400582 0.191636 -6.667802 9.777255 -0.000004 -0.094747 -10.019978 -0.842947 4.142604 6.006696 70.779632 -23.150337 0.000016 -0.000001 -9.221594 39.329930 35.949423 -25.491928 -0.000024 -0.000081 -1.596222 -1.223755 -3.274105 -7.221783 -0.092151 2.290803 -1.394104 -7.998418 10.693174 -4.097045 0.000041 0.000007 0.000021 0.000032 7.184561 -2.520613 0.000010 0.000007 0.000038 -0.000492 4.790062 -7.277777 -0.092153 0.487453 -1.939970 -17.864107 7.805768 -4.206082 0.000032 0.000002 0.000005 0.000028 7.308687 -2.774218 0.000013 0.000005 0.000003 0.000016 4.872822 -6.277318 -0.092148 -2.805744 -24.734864 -44.294316 16.524960 -3.178881 -0.000017 -0.000013 0.000005 -0.000248 0.834951 -1.998150 0.000037 -0.000005 0.000012 -0.000533 0.556653 -6.982759 -0.092122 -1.288481 -15.991390 -30.340646 5.656566 -3.928638 0.000000 0.000000 -0.000011 0.000042 10.112994 -2.533663 -0.000020 0.000021 -0.000003 0.000025 6.742966 -1.859590 -0.083690 2.492214 28.360395 21.748304 22.086248 -5.642620 1.429632 -8.840493 0.355564 -6.357127 6.396634 7.671659 0.000004 -0.000005 -2.633127 11.508613 3.513480 -0.000022 -40.915512 0.000035 16.333441 -0.104585 0.034074 -13.345558 3.956697 -1.570031 -0.000023 -5.909505 12.472996 -0.000034 0.000000 0.000009 -7.671660 -0.000002 0.000001 -5.713017 4.204355 -4.680583 -0.000013 -40.915508 0.000022 16.656468 -0.552632 0.095672 -8.314476 -24.988187 4.205484 0.000004 0.000005 -0.000000 
-25.727755 87.864014 78.829353 -1.112624 -1.717170 0.112612 -0.000002 12.546089 -0.000004 -0.382774 0.345721 -0.128447 -0.000000 12.308350 0.000006 -0.382728 0.345728 -0.128445 0.000000 11.703323 0.000007 -0.383867 0.346760 -0.128824 6.667785 9.777279 -0.000010 0.649746 18.751591 5.145913 6.385453 -5.447753 -75.779740 23.150333 0.000010 0.000081 3.326605 -29.909928 -16.731803 25.491980 0.000019 -0.000017 -19.620442 -9.660032 -7.559568 7.221772 -0.092109 2.290816 -2.397119 3.893206 9.742289 0.000014 0.000034 -7.404611 2.520587 0.000052 -0.000016 0.000004 0.000032 -4.936769 7.277755 -0.092124 0.487453 -2.364985 11.484787 5.794141 -0.000009 -0.000018 -7.545907 2.774202 0.000019 0.000004 0.000054 -0.000027 -5.030976 6.277329 -0.092165 -2.805739 -6.799023 19.868112 -3.452590 3.178927 0.000035 0.000001 -0.000297 -0.000155 -6.143998 0.000062 0.000659 -4.096216 6.982768 -0.092182 -1.288445 6.134697 14.063729 1.237990 0.000015 -0.000012 -11.513344 2.533670 0.000024 -0.000008 0.000038 0.000166 -7.677016 1.859594 -0.083735 2.492215 52.352854 -29.827965 -8.110604 3.068995 -0.000005 1.771890 -8.042314 6.555047 6.645079 0.861662 9.837936 -9.986496 -0.000016 17.137604 -0.000005 -2.357244 0.519179 0.359860 -2.357245 0.519179 0.359860 -6.667804 9.777282 -0.000009 -0.138742 -9.890360 -0.888924 2.702948 6.438639 69.655690 -23.150356 -0.000001 -0.000013 -15.702146 43.206530 44.201207 -25.491940 -0.000015 -0.000086 -2.816475 -2.916937 -5.350710 -7.221798 -0.092150 2.290801 -1.749474 -8.062769 10.101815 -4.097045 0.000024 0.000023 0.000017 0.000009 6.675105 -2.520621 0.000038 0.000002 0.000057 -0.000502 4.450355 -7.277774 -0.092161 0.487446 -2.040890 -17.827798 6.894498 -4.206075 0.000027 -0.000002 0.000011 0.000007 7.154391 -2.774229 0.000029 0.000006 0.000001 0.000014 4.769941 -6.277318 -0.092176 -2.805760 -25.855603 -43.665256 14.405241 -3.178920 -0.000014 0.000005 0.000003 -0.000246 0.796903 -1.998152 0.000038 0.000016 0.000006 -0.000535 0.531301 -6.982778 -0.092138 -1.288488 -16.400681 -30.056323 4.081686 -3.928630 0.000012 0.000019 -0.000009 0.000043 10.207475 -2.533674 0.000004 -0.000003 -0.000006 0.000023 6.805984 -1.859589 -0.083706 2.492203 28.051252 21.757909 22.388699 -5.708648 1.246171 -8.864342 0.361808 -6.412180 6.452713 7.671660 0.000003 -0.000006 -2.437720 11.774835 3.427688 -0.000024 -40.915512 0.000034 16.478888 -0.100763 0.022527 -13.495487 4.081818 -1.547502 -0.000023 -5.909513 12.472996 -0.000035 0.000001 0.000011 -7.671662 0.000001 0.000002 -5.724153 4.851904 -4.708629 -0.000002 -40.915512 0.000032 17.065011 -0.536171 0.119249 -8.559894 -25.240792 4.205655 0.000013 -0.000003 -0.000001 
-25.689680 87.813049 78.846657 -1.427099 -2.031419 0.165018 -0.000002 12.546089 -0.000012 -0.362741 0.334152 -0.129140 -0.000002 12.308357 0.000005 -0.362694 0.334158 -0.129138 -0.000003 11.703354 0.000007 -0.363774 0.335156 -0.129520 6.667783 9.777335 0.000004 0.725687 18.659590 4.991105 8.074630 -6.266328 -74.868237 23.150345 0.000013 0.000065 4.181806 -29.293046 -17.423908 25.492002 0.000015 -0.000007 -21.058194 -9.425076 -8.339238 7.221759 -0.092120 2.290837 -2.608567 3.783338 9.899528 0.000011 0.000050 -7.130331 2.520583 0.000041 0.000001 -0.000002 0.000043 -4.753880 7.277753 -0.092147 0.487476 -2.856668 11.318551 6.203198 -0.000028 -0.000013 -7.009390 2.774197 0.000017 0.000001 0.000064 -0.000016 -4.673225 6.277322 -0.092164 -2.805722 -6.718230 19.859113 -3.380715 3.178920 0.000029 0.000010 -0.000300 -0.000119 -5.848053 0.000056 0.000681 -3.898886 6.982754 -0.092177 -1.288430 5.854051 13.974253 1.114317 0.000008 -0.000007 -10.686154 2.533668 -0.000009 0.000005 0.000045 0.000170 -7.125259 1.859579 -0.083735 2.492228 52.387694 -29.862140 -7.938289 3.069005 0.000018 1.771880 -8.065981 6.675466 6.560403 0.874029 9.906899 -10.058643 -0.000016 17.137604 -0.000001 -2.561906 0.497127 0.516681 -2.561904 0.497127 0.516681 -6.667801 9.777275 -0.000003 -0.177132 -9.755585 -0.944082 -0.043131 6.301031 68.892607 -23.150337 0.000006 -0.000024 -22.534215 48.325774 53.424483 -25.491941 -0.000023 -0.000079 -4.846114 -4.052906 -6.368147 -7.221786 -0.092154 2.290797 -1.968058 -8.127213 9.497091 -4.097045 0.000048 0.000007 0.000001 0.000010 6.401211 -2.520592 0.000033 0.000002 0.000060 -0.000512 4.267723 -7.277787 -0.092161 0.487433 -2.098003 -17.745180 5.838609 -4.206089 0.000026 -0.000016 0.000003 -0.000004 7.276199 -2.774210 0.000008 0.000007 -0.000001 0.000010 4.851160 -6.277328 -0.092163 -2.805757 -26.517694 -43.032828 12.351571 -3.178907 -0.000011 0.000010 0.000020 -0.000253 1.179283 -1.998157 0.000044 0.000007 0.000012 -0.000527 0.786206 -6.982777 -0.092135 -1.288491 -16.621417 -29.796734 1.906346 -3.928627 0.000002 0.000003 -0.000001 0.000012 11.241044 -2.533653 -0.000011 -0.000011 0.000004 0.000003 7.495369 -1.859612 -0.083699 2.492230 27.874157 21.651293 22.632732 -5.659036 1.445296 -8.963189 0.350497 -6.312026 6.350681 7.671661 0.000006 -0.000006 -2.232384 11.949626 3.366849 -0.000022 -40.915508 0.000024 16.825840 -0.094813 0.018159 -13.722417 4.192057 -1.520955 -0.000023 -5.909503 12.472995 -0.000031 -0.000001 0.000010 -7.671661 -0.000001 -0.000010 -5.649044 5.687681 -4.689045 -0.000004 -40.915508 0.000030 17.607717 -0.505833 0.148658 -8.851526 -25.778186 4.207231 0.000009 -0.000003 -0.000001 
-25.633764 87.754768 78.871658 -1.840353 -2.267754 0.196752 -0.000002 12.546089 -0.000003 -0.365469 0.309312 -0.146335 0.000001 12.308365 -0.000003 -0.365421 0.309318 -0.146333 -0.000000 11.703323 0.000015 -0.366511 0.310242 -0.146767 6.667785 9.777266 0.000007 0.876800 18.586727 4.989882 10.230323 -7.352039 -73.610123 23.150343 0.000002 0.000070 4.201655 -28.903984 -18.107858 25.491997 0.000021 -0.000009 -22.547778 -9.767247 -9.329337 7.221748 -0.092095 2.290840 -3.008147 3.644346 10.207753 0.000007 -0.000013 -6.697465 2.520589 0.000045 -0.000014 0.000011 -0.000002 -4.465244 7.277737 -0.092121 0.487460 -3.168227 11.201299 6.511268 -0.000013 -0.000007 -6.766744 2.774217 0.000049 -0.000010 0.000058 -0.000009 -4.511422 6.277315 -0.092142 -2.805729 -6.804137 19.797558 -3.262362 3.178921 0.000036 0.000000 -0.000302 -0.000148 -5.677890 0.000063 0.000666 -3.785445 6.982749 -0.092160 -1.288448 5.530966 13.887439 1.081525 0.000009 0.000000 -9.952112 2.533655 0.000006 -0.000010 0.000032 0.000171 -6.635670 1.859557 -0.083722 2.492228 52.414899 -29.865456 -7.703019 3.069000 -0.000013 1.771872 -8.075715 6.794568 6.428068 0.889071 9.990035 -10.145719 -0.000017 17.137604 -0.000003 -2.549602 0.352528 0.627318 -2.549602 0.352529 0.627319 -6.667802 9.777286 -0.000001 -0.054693 -9.640741 -0.689699 -4.199237 6.135600 68.592011 -23.150333 0.000000 -0.000012 -31.728097 52.036684 64.194257 -25.491951 0.000008 -0.000072 -5.076947 -2.956704 -6.990586 -7.221785 -0.092151 2.290819 -2.416663 -8.131328 9.095944 -4.097054 0.000039 0.000008 0.000017 0.000010 6.466783 -2.520614 0.000047 -0.000011 0.000052 -0.000503 4.311450 -7.277781 -0.092148 0.487461 -2.415123 -17.683852 5.032370 -4.206075 0.000032 0.000003 0.000007 0.000019 7.760366 -2.774208 0.000016 0.000018 0.000004 0.000011 5.174014 -6.277333 -0.092165 -2.805744 -27.630221 -42.774975 10.028771 -3.178914 -0.000024 -0.000006 0.000025 -0.000240 2.058968 -1.998172 0.000037 0.000013 0.000014 -0.000522 1.372668 -6.982776 -0.092120 -1.288470 -17.476096 -29.537201 -0.206388 -3.928642 0.000010 -0.000003 -0.000006 0.000017 12.735303 -2.533678 -0.000010 -0.000024 0.000002 0.000009 8.492158 -1.859600 -0.083703 2.492236 27.660757 21.542953 22.853347 -5.589758 1.607534 -8.878974 0.347357 -6.283879 6.322006 7.671662 0.000002 0.000002 -1.981388 12.041888 3.321943 -0.000022 -40.915504 0.000024 17.272633 -0.116489 -0.000530 -13.996255 4.327325 -1.464022 -0.000021 -5.909508 12.473010 -0.000030 0.000000 0.000012 -7.671659 -0.000000 0.000002 -5.452408 6.641051 -4.643433 -0.000005 -40.915520 0.000025 18.157568 -0.444899 0.185245 -9.129901 -26.534554 4.209714 0.000012 -0.000001 -0.000001 
